<svg width="218" height="32" viewBox="0 0 218 32" fill="none" xmlns="http://www.w3.org/2000/svg">
<path d="M70 4L72.6942 12.2918H81.4127L74.3593 17.4164L77.0534 25.7082L70 20.5836L62.9466 25.7082L65.6407 17.4164L58.5873 12.2918H67.3058L70 4Z" fill="#FFA500"/>
<path d="M104 4L106.694 12.2918H115.413L108.359 17.4164L111.053 25.7082L104 20.5836L96.9466 25.7082L99.6407 17.4164L92.5873 12.2918H101.306L104 4Z" fill="#FFA500"/>
<path d="M138 4L140.694 12.2918H149.413L142.359 17.4164L145.053 25.7082L138 20.5836L130.947 25.7082L133.641 17.4164L126.587 12.2918H135.306L138 4Z" fill="#FFA500"/>
<path d="M172 4L174.694 12.2918H183.413L176.359 17.4164L179.053 25.7082L172 20.5836L164.947 25.7082L167.641 17.4164L160.587 12.2918H169.306L172 4Z" fill="#D9D9D9"/>
<path d="M206 4L208.694 12.2918H217.413L210.359 17.4164L213.053 25.7082L206 20.5836L198.947 25.7082L201.641 17.4164L194.587 12.2918H203.306L206 4Z" fill="#D9D9D9"/>
</svg>
